<?xml version="1.0" encoding="UTF-8"?>
<svg id="Layer_1" data-name="Layer 1" xmlns="http://www.w3.org/2000/svg" viewBox="0 0 180.08 63.1">
  <defs>
    <style>
      .cls-1 {
        fill: none;
        stroke: #ffffff;
        stroke-linejoin: round;
        stroke-width: 3px;
      }
    </style>
  </defs>
  <g>
    <rect class="cls-1" x="41.11" y="2.34" width="18.99" height="18.99" transform="translate(62.44 -38.77) rotate(90)"/>
    <rect class="cls-1" x="80.54" y="41.77" width="18.99" height="18.99" transform="translate(141.3 -38.77) rotate(90)"/>
    <polygon class="cls-1" points="99.53 41.77 60.1 2.34 60.1 21.33 80.54 41.77 99.53 41.77"/>
    <polyline class="cls-1" points="50.61 30.82 80.54 60.76 80.54 41.77 60.1 21.33 41.11 21.33"/>
    <rect class="cls-1" x="41.11" y="2.34" width="18.99" height="18.99" transform="translate(62.44 -38.77) rotate(90)"/>
    <rect class="cls-1" x="1.68" y="41.77" width="18.99" height="18.99" transform="translate(62.44 40.09) rotate(90)"/>
    <polygon class="cls-1" points="1.68 41.77 41.11 2.34 41.11 21.33 20.67 41.77 1.68 41.77"/>
    <polygon class="cls-1" points="60.1 21.33 20.67 60.76 20.67 41.77 41.11 21.33 60.1 21.33"/>
  </g>
  <g>
    <rect class="cls-1" x="119.97" y="2.34" width="18.99" height="18.99" transform="translate(141.3 -117.63) rotate(90)"/>
    <rect class="cls-1" x="159.41" y="41.77" width="18.99" height="18.99" transform="translate(220.17 -117.63) rotate(90)"/>
    <polygon class="cls-1" points="178.4 41.77 138.96 2.34 138.96 21.33 159.41 41.77 178.4 41.77"/>
    <polyline class="cls-1" points="129.47 30.82 159.41 60.76 159.41 41.77 138.96 21.33 119.97 21.33"/>
    <rect class="cls-1" x="119.97" y="2.34" width="18.99" height="18.99" transform="translate(141.3 -117.63) rotate(90)"/>
    <rect class="cls-1" x="80.54" y="41.77" width="18.99" height="18.99" transform="translate(141.3 -38.77) rotate(90)"/>
    <polygon class="cls-1" points="80.54 41.77 119.97 2.34 119.97 21.33 99.53 41.77 80.54 41.77"/>
    <polygon class="cls-1" points="138.96 21.33 99.53 60.76 99.53 41.77 119.97 21.33 138.96 21.33"/>
  </g>
</svg>
